<svg width="41" height="42" viewBox="0 0 41 42" fill="none" xmlns="http://www.w3.org/2000/svg">
<path fill-rule="evenodd" clip-rule="evenodd" d="M23.0257 26.1284L24.9323 24.1232C25.1578 23.8833 25.4537 23.7212 25.7772 23.6601C26.1007 23.5989 26.4353 23.642 26.7328 23.7831L26.734 23.7805L31.2609 25.8917C31.2897 25.9051 31.3177 25.9202 31.3447 25.9369C31.6148 26.0816 31.8362 26.3027 31.9812 26.5726C32.1262 26.8425 32.1884 27.1492 32.16 27.4542C32.1103 28.0156 31.9979 28.5696 31.825 29.106C31.6488 29.6494 31.4147 30.1723 31.1268 30.6656C31.083 30.7414 31.027 30.8095 30.9611 30.8671C27.9158 33.7522 23.472 33.1225 19.3328 30.7104C17.5558 29.6591 15.9202 28.3853 14.4656 26.92C13.0003 25.4654 11.7265 23.8298 10.6752 22.0528C8.25692 17.9025 7.62999 13.4458 10.542 10.3998C10.595 10.3442 10.6557 10.2964 10.7222 10.258C11.2152 9.97046 11.7376 9.73669 12.2805 9.56071C12.8169 9.38791 13.3709 9.2757 13.9323 9.22616C14.2535 9.19686 14.576 9.26749 14.8556 9.42839C15.1352 9.5893 15.3583 9.83263 15.4944 10.1251L17.6056 14.6518C17.6189 14.6803 17.6304 14.7095 17.6403 14.7393C17.7574 15.0298 17.784 15.3489 17.7167 15.6548C17.6493 15.9607 17.4912 16.2391 17.2629 16.4536L15.2577 18.3605C15.6356 19.6546 16.9202 21.3973 18.4542 22.9316C19.9883 24.466 21.7312 25.7505 23.0254 26.1282L23.0257 26.1284ZM8.25457 39.7819L7.84426 36.6528C11.5257 39.6017 16.1286 41.1588 20.8442 41.0508C25.5598 40.9429 30.0865 39.1766 33.6291 36.0623C37.1717 32.9481 39.5035 28.685 40.215 24.0222C40.9264 19.3593 39.972 14.5948 37.5193 10.5658C37.4649 10.4753 37.3932 10.3964 37.3083 10.3337C37.2233 10.271 37.1268 10.2258 37.0243 10.2006C36.9217 10.1753 36.8152 10.1707 36.7109 10.1868C36.6065 10.2029 36.5064 10.2395 36.4163 10.2945C36.3261 10.3495 36.2478 10.4218 36.1857 10.5072C36.1236 10.5926 36.0791 10.6894 36.0546 10.7921C36.0301 10.8949 36.0262 11.0014 36.0431 11.1056C36.0599 11.2098 36.0973 11.3097 36.1529 11.3994C38.4256 15.1321 39.3002 19.55 38.621 23.867C37.9418 28.184 35.7529 32.12 32.4439 34.9744C29.1349 37.8289 24.9204 39.4167 20.5504 39.4552C16.1805 39.4937 11.9387 37.9804 8.57987 35.1847L12.144 34.7174C12.2481 34.7038 12.3485 34.6698 12.4395 34.6174C12.5305 34.565 12.6103 34.4952 12.6743 34.412C12.7384 34.3287 12.7854 34.2337 12.8127 34.1323C12.84 34.0309 12.847 33.9251 12.8334 33.821C12.8198 33.7169 12.7859 33.6164 12.7335 33.5254C12.6811 33.4344 12.6113 33.3546 12.528 33.2906C12.4448 33.2266 12.3498 33.1796 12.2484 33.1523C12.147 33.125 12.0412 33.1179 11.9371 33.1315L6.66717 33.8225C6.45689 33.8499 6.26611 33.9598 6.13682 34.1279C6.00752 34.296 5.95029 34.5085 5.97772 34.7188L6.66874 39.9887C6.69617 40.199 6.80601 40.3898 6.97411 40.5191C7.1422 40.6484 7.35478 40.7056 7.56507 40.6782C7.77537 40.6508 7.96615 40.5409 8.09546 40.3728C8.22476 40.2048 8.282 39.9922 8.25457 39.7819ZM32.518 2.21783L32.9282 5.34624C29.2467 2.39757 24.6438 0.840526 19.9282 0.948633C15.2127 1.05674 10.686 2.82309 7.14346 5.93737C3.60093 9.05165 1.26911 13.3147 0.557665 17.9775C-0.153784 22.6404 0.800638 27.4048 3.25326 31.4338C3.3076 31.5243 3.37932 31.6032 3.46428 31.6659C3.54924 31.7286 3.64576 31.7739 3.74829 31.7991C3.85082 31.8243 3.95732 31.829 4.06167 31.8129C4.16602 31.7967 4.26614 31.7601 4.35628 31.7051C4.44641 31.6501 4.52478 31.5779 4.58685 31.4925C4.64893 31.407 4.69349 31.3102 4.71797 31.2075C4.74245 31.1048 4.74636 30.9982 4.72949 30.894C4.71261 30.7898 4.67528 30.6899 4.61964 30.6002C2.34696 26.8677 1.47236 22.4498 2.1515 18.1329C2.83063 13.816 5.01945 9.88007 8.32839 7.02563C11.6373 4.17119 15.8517 2.58341 20.2216 2.54485C24.5914 2.5063 28.8332 4.01948 32.192 6.8151L28.6284 7.28236C28.5243 7.29595 28.4239 7.32991 28.3329 7.38231C28.2419 7.43471 28.1621 7.50452 28.098 7.58776C28.034 7.67099 27.987 7.76603 27.9597 7.86743C27.9324 7.96883 27.9254 8.07461 27.939 8.17874C27.9525 8.28286 27.9865 8.38329 28.0389 8.4743C28.0913 8.5653 28.1611 8.64509 28.2444 8.70911C28.3276 8.77313 28.4226 8.82013 28.524 8.84743C28.6254 8.87472 28.7312 8.88178 28.8353 8.86819L34.1052 8.17717C34.3155 8.14972 34.5062 8.03987 34.6355 7.87179C34.7648 7.70371 34.8221 7.49115 34.7947 7.28088L34.1037 2.01092C34.075 1.80169 33.9647 1.61231 33.7969 1.48411C33.629 1.3559 33.4173 1.29928 33.2079 1.32661C32.9985 1.35393 32.8084 1.46297 32.6791 1.62994C32.5498 1.79691 32.4918 2.00825 32.5177 2.21783H32.518Z" fill="white"/>
</svg>
