<svg width="41" height="48" viewBox="0 0 41 48" fill="none" xmlns="http://www.w3.org/2000/svg">
<path d="M20.0475 7.21681C8.97616 7.21916 0.00299123 16.2008 0.00534041 27.2779C0.00615846 31.1135 1.10621 34.8685 3.17509 38.0976L0.0562394 46.1939C-0.109848 46.6245 0.104398 47.1083 0.534768 47.2745C0.631006 47.3116 0.733195 47.3306 0.836325 47.3305C0.931998 47.331 1.02701 47.3145 1.11697 47.282L9.46965 44.2985C18.8673 50.1546 31.2304 47.2795 37.0833 37.8768C42.9363 28.4742 40.0627 16.1047 30.665 10.2488C27.4793 8.26359 23.8005 7.21309 20.0475 7.21681Z" fill="white"/>
<path d="M29.6039 30.7015C29.6039 30.7015 27.5575 29.6987 26.2762 29.0301C24.8262 28.283 23.1223 29.682 22.3204 30.4776C21.0724 29.9979 19.9326 29.274 18.9677 28.3482C18.0422 27.3829 17.3186 26.2424 16.8394 24.9937C17.6346 24.1898 19.0295 22.4866 18.2861 21.0359C17.6262 19.7522 16.6156 17.7064 16.6156 17.7048C16.5461 17.5667 16.4396 17.4506 16.3081 17.3695C16.1765 17.2883 16.025 17.2453 15.8705 17.2451H14.2C11.7672 17.6655 9.99834 19.7894 10.0237 22.2593C10.0237 24.8834 13.1626 29.9244 15.2792 32.0437C17.3958 34.1629 22.4341 37.3019 25.0585 37.3019C27.5272 37.3273 29.6499 35.5574 30.0701 33.1234V31.4521C30.0702 31.2959 30.0266 31.1428 29.9442 31.0101C29.8618 30.8775 29.7439 30.7705 29.6039 30.7015Z" fill="#363636"/>
<circle cx="31.234" cy="9.96836" r="9.01165" fill="#363636" stroke="white" stroke-width="0.581397"/>
<circle cx="26.5821" cy="9.9688" r="1.74419" fill="white"/>
<circle cx="31.2325" cy="9.9688" r="1.74419" fill="white"/>
<circle cx="35.8848" cy="9.9688" r="1.74419" fill="white"/>
</svg>
