<svg width="41" height="48" viewBox="0 0 41 48" fill="none" xmlns="http://www.w3.org/2000/svg">
<path d="M20.2115 7.21681C9.14023 7.21916 0.167054 16.2008 0.169403 27.2779C0.170221 31.1135 1.27028 34.8685 3.33915 38.0976L0.220302 46.1939C0.0542147 46.6245 0.26846 47.1083 0.69883 47.2745C0.795069 47.3116 0.897258 47.3306 1.00039 47.3305C1.09606 47.331 1.19107 47.3145 1.28104 47.282L9.63371 44.2985C19.0314 50.1546 31.3945 47.2795 37.2474 37.8768C43.1003 28.4742 40.2268 16.1047 30.8291 10.2488C27.6433 8.26359 23.9646 7.21309 20.2115 7.21681Z" fill="white"/>
<path d="M29.768 30.7015C29.768 30.7015 27.7216 29.6987 26.4403 29.0301C24.9903 28.283 23.2863 29.682 22.4845 30.4776C21.2365 29.9979 20.0967 29.274 19.1317 28.3482C18.2062 27.3829 17.4827 26.2424 17.0035 24.9937C17.7987 24.1898 19.1935 22.4866 18.4502 21.0359C17.7903 19.7522 16.7797 17.7064 16.7797 17.7048C16.7101 17.5667 16.6037 17.4506 16.4721 17.3695C16.3406 17.2883 16.1891 17.2453 16.0346 17.2451H14.3641C11.9313 17.6655 10.1624 19.7894 10.1878 22.2593C10.1878 24.8834 13.3267 29.9244 15.4433 32.0437C17.5599 34.1629 22.5982 37.3019 25.2225 37.3019C27.6912 37.3273 29.8139 35.5574 30.2341 33.1234V31.4521C30.2343 31.2959 30.1907 31.1428 30.1083 31.0101C30.0259 30.8775 29.908 30.7705 29.768 30.7015Z" fill="#363636"/>
<circle cx="31.3981" cy="9.96836" r="9.01165" fill="#363636" stroke="white" stroke-width="0.581397"/>
<path d="M26.4883 8.22373C27.4516 8.22373 28.2325 7.44283 28.2325 6.47954C28.2325 5.51625 27.4516 4.73535 26.4883 4.73535C25.525 4.73535 24.7441 5.51625 24.7441 6.47954C24.7441 7.44283 25.525 8.22373 26.4883 8.22373Z" fill="white"/>
<path d="M28.4005 9.42678C27.8153 9.79194 27.3327 10.3 26.9981 10.9032C26.6634 11.5063 26.4878 12.1847 26.4877 12.8745H25.3249C25.0168 12.8735 24.7216 12.7507 24.5037 12.5329C24.2858 12.315 24.163 12.0198 24.1621 11.7117V10.5489C24.1635 10.0867 24.3477 9.64387 24.6745 9.31707C25.0013 8.99027 25.4441 8.80607 25.9063 8.80469H27.0691C27.3229 8.80526 27.5736 8.86122 27.8035 8.96867C28.0335 9.07612 28.2372 9.23246 28.4005 9.42678Z" fill="white"/>
<path d="M35.7891 8.22373C36.7524 8.22373 37.5333 7.44283 37.5333 6.47954C37.5333 5.51625 36.7524 4.73535 35.7891 4.73535C34.8258 4.73535 34.0449 5.51625 34.0449 6.47954C34.0449 7.44283 34.8258 8.22373 35.7891 8.22373Z" fill="white"/>
<path d="M38.1153 10.5489V11.7117C38.1144 12.0198 37.9916 12.315 37.7737 12.5329C37.5559 12.7507 37.2607 12.8735 36.9525 12.8745H35.7897C35.7897 12.1847 35.614 11.5063 35.2794 10.9032C34.9448 10.3 34.4621 9.79194 33.877 9.42678C34.0402 9.23246 34.244 9.07612 34.4739 8.96867C34.7039 8.86122 34.9545 8.80526 35.2084 8.80469H36.3711C36.8333 8.80607 37.2761 8.99027 37.603 9.31707C37.9298 9.64387 38.114 10.0867 38.1153 10.5489Z" fill="white"/>
<path d="M31.1381 9.38653C32.4225 9.38653 33.4637 8.34533 33.4637 7.06094C33.4637 5.77655 32.4225 4.73535 31.1381 4.73535C29.8537 4.73535 28.8125 5.77655 28.8125 7.06094C28.8125 8.34533 29.8537 9.38653 31.1381 9.38653Z" fill="white"/>
<path d="M34.6272 12.8748V13.4562C34.6258 13.9183 34.4416 14.3612 34.1148 14.688C33.788 15.0148 33.3451 15.199 32.883 15.2003H29.3946C28.9324 15.199 28.4896 15.0148 28.1628 14.688C27.836 14.3612 27.6518 13.9183 27.6504 13.4562V12.8748C27.6504 12.1038 27.9567 11.3644 28.5018 10.8192C29.047 10.274 29.7864 9.96777 30.5574 9.96777H31.7202C32.4911 9.96777 33.2306 10.274 33.7757 10.8192C34.3209 11.3644 34.6272 12.1038 34.6272 12.8748Z" fill="white"/>
</svg>
