<svg width="286" height="226" viewBox="0 0 286 226" fill="none" xmlns="http://www.w3.org/2000/svg">
<path d="M70.5981 86.7086L76.0393 116.395L75.8119 116.551L47.3081 102.533L18.8042 116.551L18.5768 116.395L24.018 86.7086L0.960938 65.6808L1.04968 65.4266L32.9147 61.0996L47.1638 34.0898H47.4523L61.7014 61.0996L93.5664 65.4266L93.6552 65.686L70.5981 86.7086Z" fill="#D2940A"/>
<path d="M70.5986 86.7086L76.0398 116.395L75.8124 116.551L47.3086 102.533V34.0898H47.4528L61.7019 61.0996L93.567 65.4266L93.6557 65.686L70.5986 86.7086Z" fill="#D2940A"/>
<path d="M261.887 86.7086L267.328 116.395L267.101 116.551L238.597 102.533L210.093 116.551L209.866 116.395L215.307 86.7086L192.25 65.6808L192.339 65.4266L224.204 61.0996L238.453 34.0898H238.741L252.99 61.0996L284.855 65.4266L284.944 65.686L261.887 86.7086Z" fill="#D2940A"/>
<path d="M261.892 86.7086L267.333 116.395L267.105 116.551L238.602 102.533V34.0898H238.746L252.995 61.0996L284.86 65.4266L284.949 65.686L261.892 86.7086Z" fill="#D2940A"/>
<path d="M274.809 189.016L285.036 152.786H219.281V225.246H285.036L274.809 189.016Z" fill="#D2940A"/>
<path d="M1.0279 152.786L11.2547 189.016L1.02734 225.246H66.7825V152.786H1.0279Z" fill="#D2940A"/>
<path d="M166.243 52.6187L171.684 82.3056L171.456 82.4613L142.953 68.4428L114.449 82.4613L114.221 82.3056L119.663 52.6187L96.6055 31.591L96.6942 31.3367L128.559 27.0098L142.808 0H143.097L157.346 27.0098L189.211 31.3367L189.3 31.5961L166.243 52.6187Z" fill="#D2940A"/>
<path d="M50.1484 135.354H235.921V207.812H50.1484V135.354Z" fill="#D2940A"/>
<path d="M143.027 135.354H235.914V207.812H143.027V135.354Z" fill="#D2940A"/>
<path d="M166.243 52.6187L171.684 82.3056L171.457 82.4613L142.953 68.4428V0H143.097L157.346 27.0098L189.212 31.3367L189.3 31.5961L166.243 52.6187Z" fill="#D2940A"/>
</svg>
