<svg width="1920" height="1121" viewBox="0 0 1920 1121" fill="none" xmlns="http://www.w3.org/2000/svg">
<rect width="1920" height="1121" fill="#2B2B2B"/>
<path d="M1618.48 474.146C1688.76 460.614 1761.26 450.357 1835.12 443.498C1863.34 442.242 1891.67 441.472 1920 441.3V56C1878.7 56.3085 1837.46 57.7468 1796.46 60.309C1695.19 66.6156 1595.09 73.7212 1497.32 88.8456C1312.45 117.382 1134.25 162.213 980.711 222.425C877.5 262.947 780.733 307.179 679.91 349.099C622.75 372.841 566.089 397.012 508.484 420.44C422.276 452.688 330.057 480.466 233.18 503.367C104.36 528.394 -27.9033 543.005 -163 555.161V944L24.6467 927.934C170.02 915.492 312.616 899.94 450.101 871.66C594.253 842.039 733.404 809.108 860.891 763.221C935.605 736.34 1006.49 706.747 1077.53 677.297L1258.9 602.275C1307.84 581.928 1354.12 560.012 1402.5 539.495C1470.51 514.409 1542.79 492.537 1618.48 474.146Z" fill="#151515"/>
</svg>
