<svg width="129" height="129" viewBox="0 0 129 129" fill="none" xmlns="http://www.w3.org/2000/svg">
<g clip-path="url(#clip0_48_2143)">
<g clip-path="url(#clip1_48_2143)">
<g clip-path="url(#clip2_48_2143)">
<path fill-rule="evenodd" clip-rule="evenodd" d="M64.3198 128.104C99.6661 128.104 128.32 99.4498 128.32 64.1035C128.32 28.7572 99.6661 0.103516 64.3198 0.103516C28.9735 0.103516 0.319824 28.7572 0.319824 64.1035C0.319824 99.4498 28.9735 128.104 64.3198 128.104Z" fill="#19486A"/>
<path d="M97.2341 60.5821C97.2341 51.0706 89.8269 43.3006 80.5992 42.9567C79.4105 39.5157 77.2061 36.5362 74.2901 34.4288C71.3741 32.3212 67.8899 31.1895 64.3178 31.1895C60.7457 31.1895 57.2617 32.3212 54.3457 34.4288C51.4297 36.5362 49.2253 39.5157 48.0364 42.9567C38.8101 43.3006 31.4055 51.0719 31.4055 60.5821C31.4057 63.2652 32.0062 65.9126 33.1611 68.3223C34.3161 70.7319 35.9947 72.8401 38.069 74.4858C37.6181 76.0774 37.3886 77.726 37.3875 79.3831C37.3875 89.1045 45.1342 97.018 54.6574 97.018C58.1369 97.0215 61.5352 95.9445 64.4021 93.9301C67.2356 95.8708 70.5708 96.9052 73.9822 96.9015C83.5041 96.9015 91.2508 88.988 91.2508 79.2653C91.2505 77.6427 91.0305 76.0279 90.5971 74.4668C92.6634 72.82 94.3349 70.7137 95.4849 68.308C96.635 65.9023 97.2332 63.2593 97.2341 60.5821ZM78.1081 48.8291C78.1081 55.8907 72.9918 61.7359 66.351 62.7464C66.2356 62.03 66.1753 61.3055 66.1707 60.5794C66.1756 57.2062 67.3647 53.9468 69.5221 51.393C71.6794 48.8394 74.662 47.1607 77.9278 46.6621C78.0427 47.3787 78.1028 48.1032 78.1081 48.8291ZM64.3822 89.3552C63.0669 88.0562 62.0185 86.5021 61.2986 84.7841C60.5785 83.0662 60.2013 81.2186 60.1891 79.35C60.1766 77.4812 60.5294 75.6287 61.2266 73.9009C61.9238 72.173 62.9517 70.6049 64.2496 69.2877C65.5652 70.5866 66.6139 72.1405 67.3344 73.8584C68.0547 75.5766 68.4321 77.4241 68.4443 79.2929C68.4568 81.1619 68.1038 83.0146 67.4062 84.7425C66.7086 86.4703 65.6806 88.0385 64.3822 89.3552ZM50.7077 46.6636C57.3487 47.6726 62.4636 53.5192 62.4636 60.5821C62.4585 61.3082 62.3978 62.0327 62.282 62.7491C55.6438 61.7359 50.5315 55.8907 50.5315 48.8291C50.5368 48.1032 50.5971 47.3787 50.7118 46.6621L50.7077 46.6636ZM60.9907 66.8824C60.1777 68.5528 59.0468 70.0409 57.6642 71.2595C56.2816 72.4782 54.675 73.4031 52.9384 73.9802C51.2018 74.5571 49.3699 74.7747 47.5502 74.6202C45.7304 74.4657 43.9588 73.942 42.3395 73.08C43.1524 71.4096 44.2834 69.9217 45.666 68.703C47.0486 67.4842 48.6552 66.5593 50.3918 65.9824C52.1284 65.4053 53.96 65.1877 55.78 65.3422C57.5998 65.4969 59.3713 66.0204 60.9907 66.8824ZM67.6025 66.7877C69.2306 65.914 71.0138 65.3832 72.8466 65.2263C74.6792 65.0694 76.5241 65.2899 78.2718 65.8747C80.0196 66.4595 81.6347 67.3964 83.0215 68.6304C84.4083 69.8643 85.5385 71.3701 86.3453 73.0583C84.7171 73.9319 82.9339 74.463 81.1013 74.6197C79.2686 74.7766 77.4237 74.556 75.676 73.9714C73.9282 73.3867 72.313 72.4495 70.9262 71.2156C69.5395 69.9817 68.4092 68.476 67.6025 66.7877ZM64.3198 34.7425C67.0051 34.7457 69.6311 35.5484 71.8764 37.0528C74.1217 38.5573 75.8888 40.6978 76.9613 43.2127C74.2316 43.7111 71.6588 44.8716 69.459 46.5964C67.2592 48.3212 65.4969 50.5602 64.3198 53.125C63.1437 50.5595 61.3815 48.3201 59.1817 46.595C56.9817 44.8701 54.4084 43.71 51.6783 43.2127C52.751 40.698 54.5181 38.5575 56.7634 37.0531C59.0087 35.5488 61.6345 34.7457 64.3198 34.7425ZM34.8871 60.5821C34.8915 57.1085 36.1501 53.7588 38.4221 51.1743C40.6941 48.5898 43.8195 46.9523 47.1998 46.5754C46.8383 49.387 47.149 52.2462 48.1057 54.9082C49.0622 57.5703 50.6362 59.9558 52.6925 61.8606C49.9264 62.187 47.2782 63.1905 44.9732 64.7862C42.6681 66.3818 40.7738 68.5221 39.4518 71.0254C38.0162 69.7094 36.8678 68.0993 36.0814 66.3C35.2949 64.5007 34.888 62.5526 34.8871 60.5821ZM40.8651 79.3831C40.8649 78.4017 40.9658 77.423 41.1661 76.463C43.6493 77.69 46.3844 78.2902 49.1417 78.213C51.8992 78.136 54.5982 77.3841 57.0119 76.0204C56.5003 78.7917 56.6497 81.6483 57.4475 84.3482C58.2451 87.0483 59.6679 89.5123 61.5952 91.5316C59.5028 92.7854 57.1229 93.4519 54.6969 93.4638C52.2712 93.4757 49.8852 92.8326 47.7809 91.5994C45.6766 90.3662 43.9287 88.5868 42.7143 86.4416C41.4998 84.2963 40.8618 81.8614 40.8651 79.3831ZM87.7745 79.2653C87.778 81.7299 87.1475 84.1522 85.9461 86.2896C84.7448 88.4268 83.0146 90.2042 80.9291 91.4434C78.8436 92.6827 76.476 93.3404 74.0633 93.3506C71.6507 93.3609 69.2778 92.7233 67.1822 91.5018C69.0781 89.4682 70.4689 86.9998 71.238 84.3036C72.0071 81.6076 72.132 78.7623 71.6025 76.0066C74.0218 77.3793 76.7292 78.1362 79.4957 78.2132C82.2619 78.2903 85.0057 77.6853 87.4948 76.4495C87.6809 77.3761 87.7745 78.3194 87.7745 79.2653ZM76.0517 61.7564C77.7978 60.1085 79.191 58.1091 80.1437 55.8845C81.0962 53.6597 81.5877 51.2575 81.587 48.8291C81.5852 48.0756 81.5369 47.3229 81.4425 46.5754C84.0854 46.8616 86.5905 47.9233 88.6557 49.6321C90.7209 51.3407 92.2578 53.6236 93.0807 56.205C93.9037 58.7866 93.9774 61.5562 93.2931 64.1796C92.6091 66.8029 91.1961 69.1678 89.2249 70.9889C87.9171 68.4817 86.037 66.3337 83.744 64.7265C81.4508 63.1192 78.8123 62.1005 76.0517 61.7564Z" fill="white"/>
</g>
</g>
</g>
<defs>
<clipPath id="clip0_48_2143">
<rect width="128" height="128" fill="white" transform="translate(0.319824 0.103516)"/>
</clipPath>
<clipPath id="clip1_48_2143">
<rect width="128" height="128" fill="white" transform="translate(0.319824 0.103516)"/>
</clipPath>
<clipPath id="clip2_48_2143">
<rect width="128" height="128" fill="white" transform="translate(0.319824 0.103516)"/>
</clipPath>
</defs>
</svg>
