<svg width="129" height="129" viewBox="0 0 129 129" fill="none" xmlns="http://www.w3.org/2000/svg">
<g clip-path="url(#clip0_48_2095)">
<g clip-path="url(#clip1_48_2095)">
<path fill-rule="evenodd" clip-rule="evenodd" d="M64.312 128.104C99.6583 128.104 128.312 99.4498 128.312 64.1035C128.312 28.7572 99.6583 0.103516 64.312 0.103516C28.9657 0.103516 0.312012 28.7572 0.312012 64.1035C0.312012 99.4498 28.9657 128.104 64.312 128.104Z" fill="#3F7E44"/>
<path d="M107.86 63.6194C104.734 59.3254 90.5955 42.1611 64.312 42.1611C38.0285 42.1611 23.8974 59.3254 20.7667 63.6194C20.6338 63.8032 20.5188 63.9685 20.4263 64.0976C20.5188 64.236 20.6338 64.3942 20.7667 64.5803C23.8974 68.8813 38.0308 86.0468 64.312 86.0468C90.5931 86.0468 104.734 68.8813 107.86 64.5851C107.996 64.3989 108.109 64.236 108.198 64.1022C108.109 63.9672 107.996 63.8079 107.86 63.6242V63.6194ZM49.6553 53.0143C49.8926 52.6734 50.6791 51.7008 50.774 51.5774C50.9769 51.3215 51.379 51.2691 51.6601 51.2202C51.9413 51.1714 52.3114 51.3215 52.3566 51.5274C52.4016 51.7333 52.2485 52.5313 52.111 52.6687C51.7254 53.0607 50.7219 53.6146 50.1691 53.5272C49.7408 53.4632 49.5759 53.1386 49.6553 53.0143ZM48.7157 54.8454C48.7572 54.7964 48.7953 54.7569 48.8106 54.7371C49.1416 54.3672 49.8001 54.288 50.2545 54.2182C50.7087 54.1485 51.322 54.3672 51.3909 54.6638C51.4597 54.9606 50.2484 55.5015 50.0255 55.7108C49.3932 56.2821 48.4038 57.4454 47.8249 57.5723C47.666 57.6118 47.4979 57.5948 47.3503 57.5246C47.7278 56.5966 48.184 55.7015 48.7146 54.8489L48.7157 54.8454ZM58.5502 74.6353C58.1943 76.0082 57.779 76.5026 57.4256 76.9354C57.0721 77.3681 55.7647 77.9324 54.9343 77.8719C54.104 77.8113 53.9853 75.6324 53.9853 74.5109C53.9853 74.1247 53.4265 75.2718 53.1347 72.9391C52.9485 71.4466 51.971 73.0951 51.9022 72.0992C51.8334 71.1034 51.3447 71.3034 50.8345 70.6823C50.3243 70.0609 49.6862 70.7428 48.9721 71.0568C48.2579 71.3709 48.5545 71.5293 47.5486 71.2173C47.5224 71.2093 47.5094 71.2023 47.4844 71.193C46.5275 68.9815 46.0345 66.6035 46.0347 64.2011C46.0347 63.5951 46.068 62.9983 46.1261 62.4095C46.1583 62.3504 46.196 62.2943 46.2387 62.242C47.2068 61.1181 47.1878 60.8554 47.1878 60.8554L48.2555 60.4924C48.2555 60.4924 49.9661 60.7506 51.2545 61.2264C52.3162 61.6162 53.9829 62.4991 54.9592 62.1105C55.6627 61.8267 56.212 61.4498 56.1456 60.8762C56.0673 60.1561 55.4884 59.9851 54.7884 60.4702C54.531 60.6495 53.9806 59.3848 53.5488 59.4499C53.1169 59.515 54.0826 60.9343 53.7172 60.9949C53.3519 61.0554 52.6128 59.5128 52.487 59.2627C52.3614 59.0125 51.793 58.3948 51.2818 58.8671C50.2022 59.8734 48.4489 59.8118 48.0966 60.0713C47.0289 60.8575 46.7418 59.8118 46.7656 59.1754C46.8082 59.0299 46.8521 58.8834 46.8996 58.7391C47.2496 58.361 48.5058 58.2354 48.9375 58.517C49.4122 58.8275 49.7514 58.4378 49.9365 58.2493C50.1215 58.0609 50.0552 57.7665 49.9365 57.5199C49.8178 57.2734 50.1738 57.0872 50.4181 57.0232C50.6624 56.9592 51.4798 56.3984 51.806 56.2088C52.1322 56.0191 53.8228 55.8215 54.5856 56.1936C54.8861 56.3494 55.2322 56.3984 55.5654 56.3326C55.8985 56.2666 56.1982 56.0897 56.4137 55.8319C56.7869 55.3956 57.2365 55.0281 57.7412 54.7465C58.0069 54.6302 57.0875 53.7843 56.333 54.7011C55.5785 55.6178 55.1905 55.6969 54.8347 55.6969C54.4788 55.6969 52.3648 55.1804 52.1063 54.5254C51.8475 53.8704 52.7682 53.3807 53.5476 53.013C54.3269 52.6454 56.4623 52.6535 57.0079 52.5326C58.1171 52.294 59.5359 51.7472 60.2502 52.2243C60.9642 52.7012 57.2667 53.5178 58.4814 54.1613C58.9131 54.3939 60.8659 53.0596 61.536 52.7175C63.1102 51.9219 60.0094 51.6589 60.4115 50.0417C60.8659 48.213 56.6069 48.9203 54.4799 49.0762C56.9383 47.534 59.7369 46.5905 62.6425 46.3244C65.5481 46.0586 68.4766 46.4777 71.1834 47.5468C73.8904 48.6162 76.2974 50.3047 78.2036 52.4717C80.1099 54.6386 81.4601 57.2211 82.142 60.0038C82.1528 60.2837 82.1228 60.5639 82.053 60.8354C81.8869 61.4824 80.6294 62.0384 79.9093 60.9972C79.7243 60.7343 78.9389 60.0073 78.9603 61.2509C78.9817 62.4945 80.194 62.6225 79.0232 63.3693C77.8524 64.1162 77.6399 63.9359 77.099 64.1243C76.5581 64.3128 76.0313 65.5937 76.1653 66.2789C76.2995 66.9641 77.965 68.8383 76.7265 68.7592C76.436 68.737 74.2484 67.2724 73.8877 66.3301C73.5057 65.3377 73.0906 64.3675 72.7951 63.6194C72.4998 62.8714 71.7276 62.6887 71.0702 63.1226C70.413 63.5567 71.2518 63.9965 70.7833 64.9318C70.3146 65.8671 69.9813 66.6989 69.2945 65.9276C67.5067 63.9197 64.9052 64.9097 64.5029 62.6702C64.2835 61.4591 63.2194 61.5754 62.3296 60.889C61.44 60.2025 60.9381 59.842 60.7876 60.3295C60.6558 60.7634 63.586 63.0425 63.7947 63.6253C64.1068 64.4931 62.9181 65.254 62.0473 65.4634C61.1765 65.6727 60.7993 64.9852 59.9452 64.1128C59.091 63.2402 58.7198 62.6212 58.6604 63.3053C58.575 64.2931 59.4707 65.7484 60.3391 66.2858C61.0805 66.7454 61.9109 66.9536 61.6701 67.7006C61.4292 68.4474 61.6701 68.0263 60.8397 68.8314C60.0094 69.6363 59.8503 69.9004 59.9108 71.0185C59.9713 72.1365 59.6736 72.204 59.4944 73.1359C59.3154 74.0677 58.9012 73.2615 58.5454 74.6283L58.5502 74.6353ZM78.1916 67.4726C78.8062 67.4236 79.7338 68.2602 79.3695 68.5812C79.0055 68.9023 78.0872 68.7837 77.6234 68.4276C77.1595 68.0716 77.914 67.4969 78.1916 67.4726ZM77.4122 66.9211C77.2153 66.849 77.0408 66.6651 76.8915 66.2231C76.7419 65.781 77.1204 65.525 77.4846 65.7076C77.8487 65.8903 78.3483 66.444 78.3483 66.7373C78.3483 67.0304 77.6092 66.9968 77.4075 66.9187L77.4122 66.9211ZM69.3276 66.8873C68.9659 67.2038 68.0404 67.0875 67.5778 66.7338C67.1152 66.3802 67.8697 65.8031 68.1449 65.7786C68.7605 65.7239 69.6871 66.5685 69.3312 66.8873H69.3276ZM61.8575 70.4532C61.6061 70.8567 60.9169 73.8757 60.4553 73.5244C59.9938 73.173 60.6428 70.0225 60.7757 69.783C61.4993 68.4823 63.0629 68.5463 61.8575 70.4532ZM64.3487 82.1542C62.6074 82.1547 60.875 81.9114 59.2039 81.4317C59.0729 81.3302 58.9802 81.1891 58.9402 81.0303C58.9 80.8716 58.9148 80.7043 58.9819 80.5545C59.5478 79.1061 61.236 78.5386 62.567 78.4127C65.5327 78.1289 69.438 80.3033 70.0585 79.952C70.6789 79.6006 71.9362 78.0009 73.7774 78.0684C75.0349 78.1161 75.0254 78.3233 75.4478 78.4791C72.2608 80.8678 68.3599 82.1595 64.3487 82.1542ZM77.2616 76.9283C77.0635 76.878 76.8712 76.8082 76.6874 76.72C75.6873 76.221 75.8071 77.0179 75.316 76.8365C74.825 76.6549 75.87 75.5393 74.3944 76.4874C72.9185 77.4356 73.3206 76.3408 72.6801 74.7424C72.0395 73.1439 73.4179 71.3186 74.5781 70.9033C76.169 70.3391 77.1561 70.2239 77.8997 70.0436C80.0991 69.5049 80.5641 68.2252 80.9628 69.0035C81.0387 69.149 81.1111 69.2885 81.1774 69.4189C81.3557 69.7883 81.4505 70.1909 81.455 70.5996C80.5294 72.9786 79.0987 75.1372 77.2581 76.9331L77.2616 76.9283ZM82.2737 67.8692C81.7825 67.7377 79.7267 64.9503 81.3519 63.1169C81.6223 62.8156 80.8062 61.928 81.0292 61.9104C81.9189 61.843 82.3911 62.384 82.6248 63.1634C82.6425 63.5124 82.6568 63.8544 82.6568 64.2104C82.6564 65.4416 82.528 66.6695 82.2737 67.8751" fill="white"/>
</g>
</g>
<defs>
<clipPath id="clip0_48_2095">
<rect width="128" height="128" fill="white" transform="translate(0.312012 0.103516)"/>
</clipPath>
<clipPath id="clip1_48_2095">
<rect width="128" height="128" fill="white" transform="translate(0.312012 0.103516)"/>
</clipPath>
</defs>
</svg>
