<svg width="129" height="129" viewBox="0 0 129 129" fill="none" xmlns="http://www.w3.org/2000/svg">
<g clip-path="url(#clip0_48_2132)">
<g clip-path="url(#clip1_48_2132)">
<path fill-rule="evenodd" clip-rule="evenodd" d="M64.0723 128.104C99.4185 128.104 128.072 99.4498 128.072 64.1035C128.072 28.7572 99.4185 0.103516 64.0723 0.103516C28.726 0.103516 0.0722656 28.7572 0.0722656 64.1035C0.0722656 99.4498 28.726 128.104 64.0723 128.104Z" fill="#029F3C"/>
<path fill-rule="evenodd" clip-rule="evenodd" d="M68.7648 90.4689C68.7376 90.4689 68.7102 90.4682 68.6822 90.4669C68.0647 90.4299 67.5551 89.9872 67.4506 89.3975L63.3265 66.1643L57.0797 77.3685C56.8062 77.8592 56.2347 78.1231 55.6732 78.0256C55.1054 77.9282 54.6686 77.4895 54.5865 76.9387L51.9341 59.0087L47.0822 69.5513C46.8677 70.0165 46.3906 70.3158 45.8644 70.3158H27.0054C26.269 70.3158 25.6724 69.7386 25.6724 69.0263C25.6724 68.3141 26.269 67.737 27.0054 67.737H44.9978L51.3806 53.8706C51.6225 53.3458 52.194 53.0393 52.7828 53.1181C53.3708 53.1975 53.8344 53.6429 53.9185 54.2125L56.6529 72.7003L62.8132 61.6515C63.0831 61.1662 63.641 60.9009 64.2031 60.9909C64.7637 61.0799 65.205 61.5032 65.3015 62.0456L69.1198 83.5626L83.0392 38.8395C83.1981 38.3299 83.6631 37.9671 84.211 37.9254C84.7608 37.8863 85.2783 38.1719 85.5166 38.6508L92.8407 53.3374C93.1611 53.9787 92.8826 54.7492 92.2196 55.0592C91.5567 55.3682 90.7593 55.0994 90.4389 54.4576L84.6047 42.7578L70.0403 89.5513C69.8704 90.0986 69.3494 90.4689 68.7648 90.4689Z" fill="white"/>
<path fill-rule="evenodd" clip-rule="evenodd" d="M102.398 66.2198C102.398 63.1482 100.311 60.6578 97.1492 60.6578C95.5687 60.6578 93.6623 62.2928 92.6264 63.2981C91.5912 62.2915 89.8111 60.6553 88.2292 60.6553C85.0683 60.6553 82.853 63.1462 82.853 66.2183C82.853 67.7542 83.4938 69.1448 84.5304 70.1516L92.6335 77.8177L100.726 70.1604L100.719 70.1549C101.756 69.1475 102.398 67.7562 102.398 66.2198Z" fill="white"/>
</g>
</g>
<defs>
<clipPath id="clip0_48_2132">
<rect width="128" height="128" fill="white" transform="translate(0.0722656 0.103516)"/>
</clipPath>
<clipPath id="clip1_48_2132">
<rect width="128" height="128" fill="white" transform="translate(0.0722656 0.103516)"/>
</clipPath>
</defs>
</svg>
