<svg width="129" height="129" viewBox="0 0 129 129" fill="none" xmlns="http://www.w3.org/2000/svg">
<g clip-path="url(#clip0_48_2107)" filter="url(#filter0_d_48_2107)">
<path fill-rule="evenodd" clip-rule="evenodd" d="M64.5762 128.104C99.9225 128.104 128.576 99.4498 128.576 64.1035C128.576 28.7572 99.9225 0.103516 64.5762 0.103516C29.2299 0.103516 0.576172 28.7572 0.576172 64.1035C0.576172 99.4498 29.2299 128.104 64.5762 128.104Z" fill="#0A97D9"/>
<path d="M99.1766 77.3413C97.6046 75.1696 87.4456 61.9326 73.2028 61.9326C60.832 61.9326 47.6052 73.399 47.6052 73.399C47.6052 73.399 42.6357 63.0005 32.4692 62.0016C32.4103 62.0016 32.3441 61.9875 32.2792 61.9875H32.2154C32.0031 62.0003 31.8043 62.2111 31.8281 62.3987C31.8577 62.5353 31.9115 62.6653 31.9868 62.782C33.2975 64.9984 36.6415 71.3284 36.6415 77.6454C36.6415 83.9867 33.2776 90.3305 31.9793 92.5444L31.8906 92.685C31.8504 92.751 31.8287 92.8269 31.8281 92.9048C31.8288 93.0086 31.8678 93.1083 31.9373 93.1842C32.0068 93.2599 32.1017 93.3061 32.203 93.3135L32.3129 93.3045C32.3487 93.3062 32.3844 93.3027 32.4191 93.2943C42.617 92.3235 47.6052 81.8929 47.6052 81.8929C47.6052 81.8929 60.8358 93.3608 73.2028 93.3608C87.4481 93.3608 97.6035 80.1211 99.1766 77.9533C99.2192 77.8944 99.2541 77.8434 99.2854 77.805C99.3064 77.7545 99.3179 77.7004 99.319 77.6454C99.3183 77.5909 99.307 77.5369 99.2854 77.487C99.2541 77.4422 99.2192 77.3912 99.1766 77.3374V77.3413ZM81.1227 79.3214C80.301 79.3203 79.4981 79.0704 78.8153 78.603C78.1325 78.1356 77.6005 77.4716 77.2866 76.6952C76.9728 75.9188 76.8912 75.0649 77.052 74.2409C77.2129 73.4171 77.609 72.6605 78.1903 72.0667C78.7716 71.473 79.5119 71.0687 80.318 70.9051C81.124 70.7414 81.9593 70.8257 82.7185 71.1472C83.4776 71.4688 84.1265 72.0132 84.5831 72.7117C85.0397 73.41 85.2837 74.2312 85.2838 75.0713C85.2837 75.6297 85.176 76.1827 84.9666 76.6983C84.7574 77.2142 84.4509 77.6828 84.0645 78.0776C83.678 78.4722 83.2194 78.7853 82.7147 78.9987C82.2098 79.2121 81.6689 79.3218 81.1227 79.3214Z" fill="white"/>
<path d="M32.1492 37.0439C32.1234 37.0355 32.0971 37.0294 32.0704 37.026C32.0164 37.0263 31.963 37.0375 31.9133 37.0591C31.8636 37.0805 31.8184 37.1117 31.7804 37.1509C31.7425 37.1902 31.7125 37.2368 31.692 37.2878C31.6717 37.339 31.6615 37.3937 31.6617 37.4489V40.3435C31.6608 40.3993 31.6706 40.4545 31.6911 40.5061C31.7114 40.5577 31.742 40.6045 31.7805 40.6438C38.6532 46.7501 45.1648 41.0271 46.6717 39.5158C46.6998 39.47 46.7362 39.43 46.7792 39.3984C46.8458 39.3514 46.9244 39.3252 47.0054 39.3228C47.1082 39.3223 47.2073 39.3627 47.2815 39.4353C47.2868 39.4426 47.2936 39.4486 47.3014 39.4532C55.0676 47.0286 63.2098 40.8929 64.9042 39.4532L65.0704 39.2974C65.1192 39.2751 65.1721 39.2643 65.2255 39.2654C65.2809 39.2638 65.3359 39.2747 65.3866 39.2974L65.5553 39.4532C67.2484 40.8929 75.3907 47.0286 83.1555 39.4532C83.1612 39.4477 83.1661 39.4417 83.1705 39.4353C83.2451 39.3631 83.3441 39.3227 83.4468 39.3228C83.5278 39.3247 83.6065 39.3508 83.673 39.3984C83.7174 39.4302 83.756 39.47 83.7866 39.5158C85.2924 41.0283 91.7952 46.7501 98.6753 40.6438C98.7136 40.6041 98.7436 40.5573 98.764 40.5057C98.7843 40.4544 98.7946 40.3991 98.794 40.3435V37.4489C98.7951 37.3939 98.7854 37.3394 98.7655 37.2882C98.7457 37.2372 98.7163 37.1905 98.6786 37.1512C98.6412 37.1119 98.5964 37.0806 98.5468 37.0591C98.4974 37.0377 98.4442 37.0263 98.3904 37.026C98.3608 37.0289 98.3314 37.0349 98.303 37.0439C98.2392 37.081 98.178 37.1167 98.0968 37.1538C95.9826 38.2358 89.4248 40.8111 83.4768 35.0537C83.4205 35.0012 83.3618 34.9476 83.3031 34.8851C83.2484 34.8598 83.1892 34.8469 83.1294 34.8467C83.0873 34.8494 83.0454 34.8558 83.0045 34.8659C82.9213 34.8993 82.8492 34.9566 82.7969 35.0306C81.0225 36.4129 72.8804 42.0491 65.629 35.1341L65.5228 35.0281C65.4429 34.9504 65.3381 34.905 65.2278 34.9003C65.1212 34.9057 65.0201 34.9513 64.9442 35.0281L64.8318 35.1341C57.5842 42.0491 49.4319 36.4116 47.66 35.0306C47.6105 34.9566 47.5404 34.8992 47.4589 34.8659C47.4177 34.8564 47.3761 34.85 47.334 34.8467C47.2751 34.8483 47.217 34.8613 47.1628 34.8851C47.1089 34.9454 47.0509 35.0017 46.9891 35.0537C41.0373 40.8111 34.4808 38.2358 32.369 37.1538C32.2953 37.1167 32.2241 37.081 32.1603 37.0439" fill="white"/>
<path d="M46.6719 50.0621C46.7012 50.0175 46.7381 49.9785 46.7807 49.9471C46.8466 49.899 46.9248 49.8716 47.0056 49.8679C47.1093 49.8683 47.2088 49.91 47.283 49.9842C47.288 49.9913 47.2944 49.9974 47.3017 50.0019C55.0654 57.5684 63.2101 51.4354 64.9046 50.0019L65.0708 49.841C65.1202 49.8216 65.1729 49.8127 65.2257 49.8141C65.2815 49.8123 65.3371 49.8215 65.3894 49.841L65.5556 50.0019C67.2488 51.4354 75.3898 57.5684 83.1572 50.0019C83.1572 50.0019 83.1658 49.9917 83.171 49.9842C83.2446 49.9101 83.3438 49.8684 83.4471 49.8679C83.5281 49.8706 83.6065 49.8983 83.672 49.9471C83.7168 49.978 83.7557 50.0169 83.787 50.0621C85.2864 51.5758 91.7943 57.2988 98.6756 51.1861C98.7147 51.1486 98.746 51.1033 98.7674 51.053C98.789 51.0027 98.8003 50.9486 98.8007 50.8937V47.9874C98.8008 47.9329 98.7904 47.8788 98.7701 47.8283C98.7496 47.7778 98.7198 47.7321 98.682 47.6935C98.6443 47.655 98.5995 47.6242 98.5501 47.6036C98.5008 47.5827 98.4479 47.5721 98.3945 47.5723C98.3649 47.5752 98.3357 47.5809 98.3071 47.589L98.1009 47.6948C95.9878 48.7783 89.4263 51.3472 83.4809 45.5973L83.3085 45.4312C83.2551 45.4009 83.1944 45.3863 83.1335 45.389C83.0898 45.3884 83.0466 45.3994 83.0084 45.421C82.9225 45.444 82.8482 45.4998 82.801 45.5768C81.0292 46.9564 72.8843 52.5939 65.6318 45.679L65.5256 45.5704C65.4462 45.4941 65.3409 45.4524 65.2319 45.4543C65.1261 45.4534 65.0242 45.4951 64.9483 45.5704L64.8359 45.679C57.5883 52.5939 49.436 46.9564 47.6641 45.5768C47.6193 45.5004 47.5471 45.4446 47.463 45.421C47.4242 45.4007 47.3816 45.3897 47.3381 45.389C47.279 45.3872 47.2207 45.4018 47.1693 45.4312C47.1132 45.4887 47.0532 45.5437 46.9919 45.5973C41.0401 51.3459 34.4849 48.7783 32.3718 47.6948L32.1631 47.589C32.1377 47.5815 32.1119 47.5758 32.0856 47.5723C32.032 47.5719 31.979 47.5824 31.9293 47.603C31.8797 47.6239 31.8345 47.6542 31.7965 47.6928C31.7583 47.7314 31.7281 47.7773 31.7075 47.8279C31.6868 47.8784 31.676 47.9327 31.6758 47.9874V50.8937C31.6751 50.948 31.6851 51.0022 31.7056 51.0524C31.7261 51.1027 31.7563 51.1483 31.7945 51.1861C38.6672 57.2988 45.18 51.5694 46.6856 50.0621" fill="white"/>
</g>
<defs>
<filter id="filter0_d_48_2107" x="-3.42383" y="0.103516" width="136" height="136" filterUnits="userSpaceOnUse" color-interpolation-filters="sRGB">
<feFlood flood-opacity="0" result="BackgroundImageFix"/>
<feColorMatrix in="SourceAlpha" type="matrix" values="0 0 0 0 0 0 0 0 0 0 0 0 0 0 0 0 0 0 127 0" result="hardAlpha"/>
<feOffset dy="4"/>
<feGaussianBlur stdDeviation="2"/>
<feComposite in2="hardAlpha" operator="out"/>
<feColorMatrix type="matrix" values="0 0 0 0 0 0 0 0 0 0 0 0 0 0 0 0 0 0 0.25 0"/>
<feBlend mode="normal" in2="BackgroundImageFix" result="effect1_dropShadow_48_2107"/>
<feBlend mode="normal" in="SourceGraphic" in2="effect1_dropShadow_48_2107" result="shape"/>
</filter>
<clipPath id="clip0_48_2107">
<rect width="128" height="128" fill="white" transform="translate(0.576172 0.103516)"/>
</clipPath>
</defs>
</svg>
