<svg width="1920" height="888" viewBox="0 0 1920 888" fill="none" xmlns="http://www.w3.org/2000/svg">
<path d="M1618.48 418.146C1688.76 404.614 1761.26 394.357 1835.12 387.498C1863.34 386.242 1891.67 385.472 1920 385.3V0C1878.7 0.308459 1837.46 1.74684 1796.46 4.30902C1695.19 10.6156 1595.09 17.7212 1497.32 32.8456C1312.45 61.3821 1134.25 106.213 980.711 166.425C877.5 206.947 780.733 251.179 679.91 293.099C622.75 316.841 566.089 341.012 508.484 364.44C422.276 396.688 330.057 424.466 233.18 447.367C104.36 472.394 -27.9033 487.005 -163 499.161V888L24.6467 871.934C170.02 859.492 312.616 843.94 450.101 815.66C594.253 786.039 733.404 753.108 860.891 707.221C935.605 680.34 1006.49 650.747 1077.53 621.297L1258.9 546.275C1307.84 525.928 1354.12 504.012 1402.5 483.495C1470.51 458.409 1542.79 436.537 1618.48 418.146Z" fill="#151515"/>
</svg>
